<svg width="24" height="10" viewBox="0 0 24 10" fill="none" xmlns="http://www.w3.org/2000/svg">
<path d="M7.0755 0.384L7.8995 1.68L2.4275 4.984L7.8995 8.288L7.0195 9.576L0.883499 5.752V4.216L7.0755 0.384ZM17.7155 0.384L23.8995 4.208V5.752L17.7635 9.576L16.8835 8.312L22.3635 4.984L16.8835 1.704L17.7155 0.384ZM18.5475 3.696L19.6835 4.24C19.5022 4.61867 19.2888 4.976 19.0435 5.312C18.8035 5.648 18.5155 5.92267 18.1795 6.136C17.8488 6.34933 17.4462 6.456 16.9715 6.456C16.5928 6.456 16.2648 6.376 15.9875 6.216C15.7048 6.056 15.4515 5.86933 15.2275 5.656C14.9982 5.44267 14.7768 5.256 14.5635 5.096C14.3448 4.936 14.1102 4.856 13.8595 4.856C13.6142 4.856 13.3902 4.936 13.1875 5.096C12.9795 5.256 12.7688 5.44267 12.5555 5.656C12.3422 5.86933 12.1022 6.056 11.8355 6.216C11.5635 6.376 11.2382 6.456 10.8595 6.456C10.4808 6.456 10.1528 6.376 9.8755 6.216C9.59283 6.056 9.3395 5.86933 9.1155 5.656C8.88617 5.44267 8.66483 5.256 8.4515 5.096C8.23283 4.936 7.99817 4.856 7.7475 4.856C7.41683 4.856 7.13417 4.98133 6.8995 5.232C6.6595 5.47733 6.4355 5.792 6.2275 6.176L5.0915 5.64C5.27817 5.272 5.4915 4.92 5.7315 4.584C5.96617 4.24267 6.2515 3.96267 6.5875 3.744C6.9235 3.52 7.32883 3.408 7.8035 3.408C8.2035 3.408 8.54483 3.488 8.8275 3.648C9.11017 3.808 9.3635 3.99467 9.5875 4.208C9.8115 4.42133 10.0275 4.608 10.2355 4.768C10.4435 4.928 10.6702 5.008 10.9155 5.008C11.1555 5.008 11.3742 4.928 11.5715 4.768C11.7688 4.608 11.9742 4.42133 12.1875 4.208C12.3955 3.99467 12.6355 3.808 12.9075 3.648C13.1795 3.488 13.5155 3.408 13.9155 3.408C14.3155 3.408 14.6568 3.488 14.9395 3.648C15.2222 3.808 15.4755 3.99467 15.6995 4.208C15.9235 4.42133 16.1395 4.608 16.3475 4.768C16.5555 4.928 16.7822 5.008 17.0275 5.008C17.3475 5.008 17.6275 4.888 17.8675 4.648C18.1128 4.40267 18.3395 4.08533 18.5475 3.696Z" fill="white"/>
</svg>
