<svg width="29" height="12" viewBox="0 0 29 12" fill="none" xmlns="http://www.w3.org/2000/svg">
<path d="M22.9395 6.088C23.1475 6.088 23.3262 6.04 23.4755 5.944C23.6248 5.848 23.7715 5.728 23.9155 5.584C24.0648 5.44 24.2355 5.30133 24.4275 5.168C24.6195 5.02933 24.8595 4.92 25.1475 4.84C25.4355 4.75467 25.7982 4.72533 26.2355 4.752V6.376C25.9635 6.38133 25.7395 6.42933 25.5635 6.52C25.3875 6.60533 25.2248 6.712 25.0755 6.84C24.9262 6.96267 24.7635 7.088 24.5875 7.216C24.4115 7.33867 24.1928 7.44267 23.9315 7.528C23.6755 7.61333 23.3448 7.656 22.9395 7.656C22.5448 7.656 22.2115 7.6 21.9395 7.488C21.6728 7.37067 21.4435 7.22933 21.2515 7.064C21.0648 6.89333 20.8942 6.72533 20.7395 6.56C20.5902 6.38933 20.4355 6.248 20.2755 6.136C20.1208 6.01867 19.9422 5.96 19.7395 5.96C19.5368 5.96 19.3582 6.01333 19.2035 6.12C19.0488 6.22667 18.8942 6.36 18.7395 6.52C18.5848 6.68 18.4142 6.84 18.2275 7C18.0355 7.16 17.8062 7.29333 17.5395 7.4C17.2728 7.50667 16.9395 7.56 16.5395 7.56C16.1395 7.56 15.8035 7.50933 15.5315 7.408C15.2542 7.30667 15.0222 7.184 14.8355 7.04C14.6488 6.89067 14.4835 6.74133 14.3395 6.592C14.1902 6.44267 14.0382 6.32 13.8835 6.224C13.7288 6.12267 13.5475 6.072 13.3395 6.072C13.1315 6.072 12.9502 6.12533 12.7955 6.232C12.6355 6.33867 12.4808 6.472 12.3315 6.632C12.1768 6.78667 12.0062 6.944 11.8195 7.104C11.6275 7.25867 11.4008 7.38933 11.1395 7.496C10.8728 7.60267 10.5395 7.656 10.1395 7.656C9.74483 7.656 9.41417 7.6 9.1475 7.488C8.8755 7.37067 8.64617 7.22933 8.4595 7.064C8.2675 6.89333 8.09683 6.72533 7.9475 6.56C7.79283 6.38933 7.63817 6.248 7.4835 6.136C7.3235 6.01867 7.14217 5.96 6.9395 5.96C6.73683 5.96 6.55817 6.01333 6.4035 6.12C6.24883 6.22667 6.09417 6.36 5.9395 6.52C5.78483 6.68 5.61417 6.84 5.4275 7C5.2355 7.16 5.00617 7.29333 4.7395 7.4C4.47283 7.50667 4.1395 7.56 3.7395 7.56C3.3555 7.56 2.96883 7.45867 2.5795 7.256C2.19017 7.048 1.8435 6.78667 1.5395 6.472C1.2355 6.152 1.0195 5.82133 0.891499 5.48L2.2995 4.816C2.4595 5.16267 2.67283 5.46133 2.9395 5.712C3.20083 5.96267 3.4675 6.088 3.7395 6.088C3.9475 6.088 4.12883 6.03467 4.2835 5.928C4.43283 5.82133 4.58483 5.688 4.7395 5.528C4.89417 5.368 5.0675 5.208 5.2595 5.048C5.44617 4.888 5.6755 4.75467 5.9475 4.648C6.21417 4.54133 6.54483 4.488 6.9395 4.488C7.3395 4.488 7.67283 4.54133 7.9395 4.648C8.20617 4.75467 8.4355 4.888 8.6275 5.048C8.81417 5.208 8.98483 5.368 9.1395 5.528C9.29417 5.688 9.44883 5.82133 9.6035 5.928C9.75817 6.03467 9.93683 6.088 10.1395 6.088C10.3422 6.088 10.5208 6.03467 10.6755 5.928C10.8302 5.82133 10.9848 5.688 11.1395 5.528C11.2942 5.368 11.4675 5.208 11.6595 5.048C11.8462 4.888 12.0755 4.75467 12.3475 4.648C12.6142 4.54133 12.9448 4.488 13.3395 4.488C13.7448 4.488 14.0835 4.54133 14.3555 4.648C14.6275 4.75467 14.8568 4.888 15.0435 5.048C15.2302 5.208 15.3982 5.368 15.5475 5.528C15.6968 5.688 15.8488 5.82133 16.0035 5.928C16.1528 6.03467 16.3315 6.088 16.5395 6.088C16.7475 6.088 16.9288 6.03467 17.0835 5.928C17.2328 5.82133 17.3848 5.688 17.5395 5.528C17.6942 5.368 17.8675 5.208 18.0595 5.048C18.2462 4.888 18.4755 4.75467 18.7475 4.648C19.0142 4.54133 19.3448 4.488 19.7395 4.488C20.1342 4.488 20.4648 4.54133 20.7315 4.648C21.0035 4.75467 21.2328 4.888 21.4195 5.048C21.6115 5.208 21.7848 5.368 21.9395 5.528C22.0942 5.688 22.2488 5.82133 22.4035 5.928C22.5582 6.03467 22.7368 6.088 22.9395 6.088ZM23.6195 0.927999L28.1555 5.992L23.6195 11.056L22.3715 9.992L24.2195 7.968C24.4755 7.69067 24.7022 7.45867 24.8995 7.272C25.1022 7.08 25.3288 6.90667 25.5795 6.752V5.232C25.3288 5.07733 25.1022 4.90667 24.8995 4.72C24.7022 4.528 24.4755 4.29333 24.2195 4.016L22.3715 1.992L23.6195 0.927999Z" fill="white"/>
</svg>
